# xmcd
#
# Track frame offsets: 
#        150
#        9044
#        21779
#        33604
#        50887
#        64017
#        76545
#        90756
#        103140
#        118458
#        129320
#        143936
#
# Disc length: 2143 seconds
#
# Revision: 0
# Processed by: cddbd v1.5.2PL0 Copyright (c) Steve Scherf et al.
# Submitted via: ExactAudioCopy v0.99pb5
#
DISCID=94085d0c
DTITLE=Various Artist - Best Of Country Hits Vol. 2
DYEAR=2010
DGENRE=Country
TTITLE0=Johnny Paycheck - Mr. Lovemaker
TTITLE1=Jack Greene - I Can't Stop Loving You
TTITLE2=Stu Phillips - Hello Darling
TTITLE3=Lynn Anderson - Half The Way
TTITLE4=Faron Young - Four In The Morning
TTITLE5=Skeeter Davis - Sweet Dreams
TTITLE6=Tommy Cash - My Heroes Have Always Been Cowboys
TTITLE7=Patsy Cline - Poor Man's Roses Or A Rich Man's Gold
TTITLE8=Tommy Overstreet - He Stopped Loving Her Today
TTITLE9=David Houston - You're My Best Friend
TTITLE10=Sandy Posey - You Never Gave Up On Me
TTITLE11=Henson Cargill - Always On My Mind
EXTD=
EXTT0=
EXTT1=
EXTT2=
EXTT3=
EXTT4=
EXTT5=
EXTT6=
EXTT7=
EXTT8=
EXTT9=
EXTT10=
EXTT11=
PLAYORDER=
